<?xml version="1.0" encoding="UTF-8"?>
<svg width="1200px" height="700px" viewBox="0 0 1200 700" version="1.1" xmlns="http://www.w3.org/2000/svg" xmlns:xlink="http://www.w3.org/1999/xlink">
    <title>The Product Development Life Cycle</title>
    <g id="The-Product-Development-Life-Cycle" stroke="none" stroke-width="1" fill="none" fill-rule="evenodd">
        <circle id="Oval" fill="#FFF5FF" cx="597.5" cy="140.5" r="88.5"></circle>
        <circle id="Oval-Copy" fill="#FFFAE5" cx="804.5" cy="287.5" r="88.5"></circle>
        <circle id="Oval-Copy-3" fill="#F5FFE3" cx="738.5" cy="560.5" r="88.5"></circle>
        <g id="Group-6" transform="translate(701.000000, 516.000000)">
            <rect id="Rectangle" stroke="#10162F" x="0.5" y="0.5" width="75" height="55"></rect>
            <rect id="Rectangle" fill="#008A27" x="7.03703704" y="10.2" width="61.9259259" height="15.4"></rect>
            <ellipse id="Oval" fill="#10162F" cx="67.5555556" cy="5.6" rx="1.40740741" ry="1.4"></ellipse>
            <ellipse id="Oval-Copy-5" fill="#10162F" cx="63.3333333" cy="5.6" rx="1.40740741" ry="1.4"></ellipse>
            <ellipse id="Oval-Copy-6" fill="#10162F" cx="59.1111111" cy="5.6" rx="1.40740741" ry="1.4"></ellipse>
            <rect id="Rectangle-Copy-8" fill="#10162F" x="7.03703704" y="30.2" width="34" height="3"></rect>
            <rect id="Rectangle-Copy-10" fill="#10162F" x="7.03703704" y="35.2" width="34" height="3"></rect>
            <rect id="Rectangle-Copy-11" fill="#10162F" x="7.03703704" y="40.2" width="34" height="3"></rect>
            <rect id="Rectangle-Copy-12" fill="#10162F" x="7.03703704" y="45.2" width="34" height="3"></rect>
            <rect id="Rectangle-Copy-8" stroke="#10162F" x="7.53703704" y="30.7" width="33" height="2"></rect>
            <rect id="Rectangle-Copy-10" stroke="#10162F" x="7.53703704" y="35.7" width="33" height="2"></rect>
            <rect id="Rectangle-Copy-11" stroke="#10162F" x="7.53703704" y="40.7" width="33" height="2"></rect>
            <rect id="Rectangle-Copy-12" stroke="#10162F" x="7.53703704" y="45.7" width="33" height="2"></rect>
            <rect id="Rectangle-Copy-9" fill="#008A27" x="47.4585538" y="29.6" width="36.8606702" height="22"></rect>
            <rect id="Rectangle" stroke="#10162F" x="7.53703704" y="10.7" width="60.9259259" height="14.4"></rect>
            <rect id="Rectangle-Copy-9" stroke="#10162F" x="47.9585538" y="30.1" width="35.8606702" height="21"></rect>
            <polygon id="Path-7" fill="#F5FFE3" transform="translate(83.457922, 51.000000) rotate(-45.000000) translate(-83.457922, -51.000000) " points="83.4579218 46 79.5078125 56 83.4579218 53.6832969 87.4080311 56"></polygon>
            <polygon id="Path-7" stroke="#10162F" transform="translate(83.457922, 51.000000) rotate(-45.000000) translate(-83.457922, -51.000000) " points="83.4579218 46 79.5078125 56 83.4579218 53.6832969 87.4080311 56"></polygon>
        </g>
        <circle id="Oval-Copy-2" fill="#F5FCFF" cx="395.5" cy="287.5" r="88.5"></circle>
        <g id="Group-2" transform="translate(378.800000, 226.000000)">
            <g id="Group">
                <polygon id="Rectangle" fill="#66C4FF" points="2.16262193e-16 36.173913 7.79166667 28.5217391 7.79166667 46.6086957 2.16262193e-16 54.2608696"></polygon>
                <polygon id="Rectangle-Copy-4" fill="#66C4FF" transform="translate(29.695833, 41.391304) scale(-1, 1) translate(-29.695833, -41.391304) " points="25.8 36.173913 33.5916667 28.5217391 33.5916667 46.6086957 25.8 54.2608696"></polygon>
                <polygon id="Rectangle" fill="#66C4FF" points="6.78333333 8.34782609 16.7 -2.13355903e-16 26.6166667 8.34782609 26.6166667 56.3478261 6.78333333 56.3478261"></polygon>
                <polygon id="Rectangle" fill="#66C4FF" points="6.78333333 55.6521739 26.6166667 55.6521739 26.6166667 60.2173913 6.78333333 60.2173913"></polygon>
                <rect id="Rectangle" fill="#10162F" x="13.1583333" y="17.3913043" width="7.08333333" height="11.1304348"></rect>
                <polygon id="Rectangle-Copy-3" fill="#66C4FF" points="10.325 59.25 23.075 59.25 25.2 62.7282609 8.2 62.7282609"></polygon>
                <path d="M7.29166667,29.7135935 L7.29166667,46.3989385 L0.5,53.0690152 L0.5,36.3836702 L7.29166667,29.7135935 Z" id="Rectangle" stroke="#10162F"></path>
                <path d="M33.0916667,29.7135935 L33.0916667,46.3989385 L26.3,53.0690152 L26.3,36.3836702 L33.0916667,29.7135935 Z" id="Rectangle-Copy-4" stroke="#10162F" transform="translate(29.695833, 41.391304) scale(-1, 1) translate(-29.695833, -41.391304) "></path>
                <path d="M16.7,0.653571568 L26.1166667,8.58049886 L26.1166667,55.8478261 L7.28333333,55.8478261 L7.28333333,8.58049886 L16.7,0.653571568 Z" id="Rectangle" stroke="#10162F"></path>
                <path d="M26.1166667,55.8632812 L26.1166667,59.7173913 L7.28333333,59.7173913 L7.28333333,55.8632812 L26.1166667,55.8632812 Z" id="Rectangle" stroke="#10162F"></path>
                <path d="M10.6054589,59.75 L22.7945411,59.75 L24.3086036,62.2282609 L9.09139635,62.2282609 L10.6054589,59.75 Z" id="Rectangle-Copy-3" stroke="#10162F"></path>
            </g>
            <rect id="Rectangle" fill="#10162F" x="16.2" y="64" width="1" height="20"></rect>
            <rect id="Rectangle-Copy-5" fill="#10162F" x="20.2" y="64" width="1" height="14"></rect>
            <rect id="Rectangle-Copy-6" fill="#10162F" x="12.2" y="64" width="1" height="14"></rect>
        </g>
        <circle id="Oval-Copy-4" fill="#FFF0E5" cx="456.5" cy="560.5" r="88.5"></circle>
        <path d="M597.5,52 C646.3772,52 686,91.6227996 686,140.5 C686,189.3772 646.3772,229 597.5,229 C548.6228,229 509,189.3772 509,140.5 C509,91.6227996 548.6228,52 597.5,52 Z M597.5,53 C549.175084,53 510,92.1750844 510,140.5 C510,188.824916 549.175084,228 597.5,228 C645.824916,228 685,188.824916 685,140.5 C685,92.1750844 645.824916,53 597.5,53 Z" id="Oval" fill="#10162F" fill-rule="nonzero"></path>
        <path d="M804.5,199 C853.3772,199 893,238.6228 893,287.5 C893,336.3772 853.3772,376 804.5,376 C755.6228,376 716,336.3772 716,287.5 C716,238.6228 755.6228,199 804.5,199 Z M804.5,200 C756.175084,200 717,239.175084 717,287.5 C717,335.824916 756.175084,375 804.5,375 C852.824916,375 892,335.824916 892,287.5 C892,239.175084 852.824916,200 804.5,200 Z" id="Oval-Copy" fill="#10162F" fill-rule="nonzero"></path>
        <path d="M738.5,472 C787.3772,472 827,511.6228 827,560.5 C827,609.3772 787.3772,649 738.5,649 C689.6228,649 650,609.3772 650,560.5 C650,511.6228 689.6228,472 738.5,472 Z M738.5,473 C690.175084,473 651,512.175084 651,560.5 C651,608.824916 690.175084,648 738.5,648 C786.824916,648 826,608.824916 826,560.5 C826,512.175084 786.824916,473 738.5,473 Z" id="Oval-Copy-3" fill="#10162F" fill-rule="nonzero"></path>
        <path d="M395.5,199 C444.3772,199 484,238.6228 484,287.5 C484,336.3772 444.3772,376 395.5,376 C346.6228,376 307,336.3772 307,287.5 C307,238.6228 346.6228,199 395.5,199 Z M395.5,200 C347.175084,200 308,239.175084 308,287.5 C308,335.824916 347.175084,375 395.5,375 C443.824916,375 483,335.824916 483,287.5 C483,239.175084 443.824916,200 395.5,200 Z" id="Oval-Copy-2" fill="#10162F" fill-rule="nonzero"></path>
        <path d="M456.5,472 C505.3772,472 545,511.6228 545,560.5 C545,609.3772 505.3772,649 456.5,649 C407.6228,649 368,609.3772 368,560.5 C368,511.6228 407.6228,472 456.5,472 Z M456.5,473 C408.175084,473 369,512.175084 369,560.5 C369,608.824916 408.175084,648 456.5,648 C504.824916,648 544,608.824916 544,560.5 C544,512.175084 504.824916,473 456.5,473 Z" id="Oval-Copy-4" fill="#10162F" fill-rule="nonzero"></path>
        <g id="Group-4" transform="translate(779.000000, 229.967268)">
            <g id="Group-3" transform="translate(0.000000, -0.000000)">
                <ellipse id="Oval" fill="#FFD300" cx="25.227692" cy="40.8875696" rx="25.227692" ry="25.1451621"></ellipse>
                <ellipse id="Oval" stroke="#10162F" cx="25.227692" cy="40.8875696" rx="24.727692" ry="24.6451621"></ellipse>
                <ellipse id="Oval" fill="#10162F" cx="25.227692" cy="40.8875696" rx="4.34960208" ry="4.33537278"></ellipse>
                <ellipse id="Oval" stroke="#10162F" cx="25.227692" cy="40.8875696" rx="14.2886471" ry="14.2402675"></ellipse>
                <line x1="25.227692" y1="41.0431984" x2="48.8281062" y2="16.1365708" id="Path-2" stroke="#10162F" stroke-width="3.9"></line>
                <polygon id="Path-3" fill="#10162F" transform="translate(48.846522, 16.138278) rotate(-315.000000) translate(-48.846522, -16.138278) " points="49.1138233 24.8345831 34.7198553 7.48826282 48.8368638 13.3601643 62.9731889 7.44197312"></polygon>
            </g>
        </g>
        <g id="Brainstorm" transform="translate(547.808000, 175.400000)" fill="#10162F" fill-rule="nonzero">
            <path d="M0,11.6 L3.792,11.6 C6.256,11.6 7.936,10.592 7.936,8 C7.936,6.592 7.232,5.792 6.288,5.376 C7.056,4.848 7.536,3.984 7.536,2.992 C7.536,0.576 5.84,0 3.6,0 L0,0 L0,11.6 Z M2.4,4.768 L2.4,1.952 L3.568,1.952 C4.544,1.952 5.024,2.432 5.024,3.36 C5.024,4.288 4.544,4.768 3.568,4.768 L2.4,4.768 Z M5.392,8.08 C5.392,9.104 4.88,9.616 3.696,9.616 L2.4,9.616 L2.4,6.528 L3.696,6.528 C4.88,6.528 5.392,7.04 5.392,8.08 Z" id="Shape"></path>
            <path d="M10.048,2.992 L10.048,4.736 L12.192,4.736 L12.192,9.872 L10.048,9.872 L10.048,11.6 L17.616,11.6 L17.616,9.872 L14.496,9.872 L14.496,7.2 C14.496,5.52 15.056,4.832 16.512,4.832 L18.16,4.832 L18.16,2.992 L16.848,2.992 C15.488,2.992 14.816,3.712 14.464,4.448 L14.464,2.992 L10.048,2.992 Z" id="Path"></path>
            <path d="M25.92,10.496 L25.936,11.6 L28.032,11.6 C27.952,11.344 27.856,11.12 27.856,8.752 C27.856,7.968 27.888,6.816 27.888,6.544 C27.888,3.632 26.368,2.768 24.24,2.768 C22.048,2.768 20.656,4.016 20.496,5.712 L22.56,5.712 C22.624,4.768 23.216,4.32 24.16,4.32 C25.104,4.32 25.68,4.768 25.68,6.096 L25.68,6.288 C22.784,6.656 20.272,7.104 20.272,9.296 C20.272,10.864 21.712,11.808 23.184,11.808 C24.432,11.808 25.312,11.408 25.92,10.496 Z M25.744,7.92 C25.744,9.312 25.248,10.24 23.808,10.24 C22.976,10.24 22.544,9.84 22.544,9.2 C22.544,8.176 23.52,7.92 25.744,7.696 L25.744,7.92 Z" id="Shape"></path>
            <path d="M38.384,11.6 L38.384,9.872 L35.872,9.872 L35.872,2.992 L31.072,2.992 L31.072,4.72 L33.568,4.72 L33.568,9.872 L31.072,9.872 L31.072,11.6 L38.384,11.6 Z M33.568,0 L33.568,2.128 L35.872,2.128 L35.872,0 L33.568,0 Z" id="Shape"></path>
            <path d="M41.296,2.992 L41.296,11.6 L43.6,11.6 L43.6,7.04 C43.6,5.728 43.824,4.576 45.12,4.576 C46.288,4.576 46.384,5.664 46.384,6.576 L46.384,11.6 L48.688,11.6 L48.688,6.192 C48.688,4.128 47.872,2.8 45.888,2.8 C44.88,2.8 44.096,3.232 43.6,4 L43.6,2.992 L41.296,2.992 Z" id="Path"></path>
            <path d="M58.88,5.552 C58.576,3.584 56.848,2.8 55.264,2.8 C53.392,2.8 51.888,3.728 51.888,5.392 C51.888,6.912 52.96,7.616 54.528,7.984 L55.552,8.224 C56.272,8.4 56.88,8.656 56.88,9.232 C56.88,9.808 56.352,10.112 55.488,10.112 C54.432,10.112 53.808,9.584 53.712,8.704 L51.68,8.704 C51.888,10.672 53.344,11.808 55.392,11.808 C57.312,11.808 58.976,10.784 58.976,8.96 C58.976,7.248 57.632,6.784 55.936,6.384 L54.992,6.16 C54.368,6 53.872,5.68 53.872,5.232 C53.872,4.768 54.432,4.48 55.136,4.48 C56.128,4.48 56.736,4.8 56.896,5.552 L58.88,5.552 Z" id="Path"></path>
            <path d="M63.648,2.992 L61.152,2.992 L61.152,4.736 L63.648,4.736 L63.648,9.264 C63.648,10.976 64.176,11.6 66.048,11.6 L69.28,11.6 L69.28,9.872 L66.896,9.872 C66.224,9.872 65.952,9.712 65.952,8.896 L65.952,4.736 L69.312,4.736 L69.312,2.992 L65.952,2.992 L65.952,0.688 L63.648,0.688 L63.648,2.992 Z" id="Path"></path>
            <path d="M80.144,7.296 C80.144,4 78.128,2.8 76.032,2.8 C73.92,2.8 71.92,4 71.92,7.296 C71.92,10.592 73.92,11.808 76.032,11.808 C78.128,11.808 80.144,10.592 80.144,7.296 Z M77.84,7.296 C77.84,9.28 77.136,10.112 76.032,10.112 C74.928,10.112 74.224,9.28 74.224,7.296 C74.224,5.312 74.928,4.496 76.032,4.496 C77.136,4.496 77.84,5.312 77.84,7.296 Z" id="Shape"></path>
            <path d="M82.4,2.992 L82.4,4.736 L84.544,4.736 L84.544,9.872 L82.4,9.872 L82.4,11.6 L89.968,11.6 L89.968,9.872 L86.848,9.872 L86.848,7.2 C86.848,5.52 87.408,4.832 88.864,4.832 L90.512,4.832 L90.512,2.992 L89.2,2.992 C87.84,2.992 87.168,3.712 86.816,4.448 L86.816,2.992 L82.4,2.992 Z" id="Path"></path>
            <path d="M97.744,11.6 L97.744,6.352 C97.744,4.992 97.856,4.544 98.32,4.544 C98.72,4.544 98.784,4.832 98.784,5.84 L98.784,11.6 L101.024,11.6 L101.024,5.504 C101.024,3.44 100.224,2.8 99.088,2.8 C98.56,2.8 97.856,3.088 97.488,3.76 C97.216,3.136 96.72,2.8 96.048,2.8 C95.424,2.8 94.848,3.152 94.56,3.648 L94.56,2.992 L92.32,2.992 L92.32,11.6 L94.56,11.6 L94.56,6.352 C94.56,4.992 94.672,4.544 95.136,4.544 C95.536,4.544 95.6,4.832 95.6,5.84 L95.6,11.6 L97.744,11.6 Z" id="Path"></path>
        </g>
        <g id="Define" transform="translate(775.224000, 322.400000)" fill="#10162F" fill-rule="nonzero">
            <path d="M5.776,5.792 C5.776,8.848 4.56,9.632 2.608,9.632 L2.4,9.632 L2.4,1.952 L2.608,1.952 C4.56,1.952 5.776,2.72 5.776,5.792 Z M2.27373675e-13,0 L2.27373675e-13,11.6 L2.656,11.6 C5.824,11.6 8.32,10.208 8.32,5.792 C8.32,1.36 5.872,0 2.72,0 L2.27373675e-13,0 Z" id="Shape"></path>
            <path d="M18.288,7.888 C18.368,4.72 16.848,2.8 14.256,2.8 C11.696,2.8 10.208,4.624 10.208,7.376 C10.208,10.016 11.6,11.808 14.288,11.808 C16.608,11.808 17.904,10.368 18.144,8.912 L15.952,8.912 C15.776,9.712 15.232,10.176 14.32,10.176 C13.36,10.176 12.496,9.472 12.416,7.888 L18.288,7.888 Z M14.224,4.448 C15.136,4.448 16.048,4.864 16.096,6.432 L12.416,6.432 C12.544,4.976 13.488,4.448 14.224,4.448 Z" id="Shape"></path>
            <path d="M22.544,2.992 L20.048,2.992 L20.048,4.72 L22.544,4.72 L22.544,11.6 L24.848,11.6 L24.848,4.72 L28.48,4.72 L28.48,2.992 L24.848,2.992 L24.848,2.512 C24.848,1.84 25.04,1.712 26,1.712 L28.48,1.712 L28.48,0 L25.712,0 C23.664,0 22.544,0.336 22.544,2.528 L22.544,2.992 Z" id="Path"></path>
            <path d="M38.64,11.6 L38.64,9.872 L36.128,9.872 L36.128,2.992 L31.328,2.992 L31.328,4.72 L33.824,4.72 L33.824,9.872 L31.328,9.872 L31.328,11.6 L38.64,11.6 Z M33.824,0 L33.824,2.128 L36.128,2.128 L36.128,0 L33.824,0 Z" id="Shape"></path>
            <path d="M41.552,2.992 L41.552,11.6 L43.856,11.6 L43.856,7.04 C43.856,5.728 44.08,4.576 45.376,4.576 C46.544,4.576 46.64,5.664 46.64,6.576 L46.64,11.6 L48.944,11.6 L48.944,6.192 C48.944,4.128 48.128,2.8 46.144,2.8 C45.136,2.8 44.352,3.232 43.856,4 L43.856,2.992 L41.552,2.992 Z" id="Path"></path>
            <path d="M59.632,7.888 C59.712,4.72 58.192,2.8 55.6,2.8 C53.04,2.8 51.552,4.624 51.552,7.376 C51.552,10.016 52.944,11.808 55.632,11.808 C57.952,11.808 59.248,10.368 59.488,8.912 L57.296,8.912 C57.12,9.712 56.576,10.176 55.664,10.176 C54.704,10.176 53.84,9.472 53.76,7.888 L59.632,7.888 Z M55.568,4.448 C56.48,4.448 57.392,4.864 57.44,6.432 L53.76,6.432 C53.888,4.976 54.832,4.448 55.568,4.448 Z" id="Shape"></path>
        </g>
        <g id="Design" transform="translate(709.224000, 595.400000)" fill="#10162F" fill-rule="nonzero">
            <path d="M5.776,5.792 C5.776,8.848 4.56,9.632 2.608,9.632 L2.4,9.632 L2.4,1.952 L2.608,1.952 C4.56,1.952 5.776,2.72 5.776,5.792 Z M0,1.13686838e-13 L0,11.6 L2.656,11.6 C5.824,11.6 8.32,10.208 8.32,5.792 C8.32,1.36 5.872,1.13686838e-13 2.72,1.13686838e-13 L0,1.13686838e-13 Z" id="Shape"></path>
            <path d="M18.288,7.888 C18.368,4.72 16.848,2.8 14.256,2.8 C11.696,2.8 10.208,4.624 10.208,7.376 C10.208,10.016 11.6,11.808 14.288,11.808 C16.608,11.808 17.904,10.368 18.144,8.912 L15.952,8.912 C15.776,9.712 15.232,10.176 14.32,10.176 C13.36,10.176 12.496,9.472 12.416,7.888 L18.288,7.888 Z M14.224,4.448 C15.136,4.448 16.048,4.864 16.096,6.432 L12.416,6.432 C12.544,4.976 13.488,4.448 14.224,4.448 Z" id="Shape"></path>
            <path d="M28.128,5.552 C27.824,3.584 26.096,2.8 24.512,2.8 C22.64,2.8 21.136,3.728 21.136,5.392 C21.136,6.912 22.208,7.616 23.776,7.984 L24.8,8.224 C25.52,8.4 26.128,8.656 26.128,9.232 C26.128,9.808 25.6,10.112 24.736,10.112 C23.68,10.112 23.056,9.584 22.96,8.704 L20.928,8.704 C21.136,10.672 22.592,11.808 24.64,11.808 C26.56,11.808 28.224,10.784 28.224,8.96 C28.224,7.248 26.88,6.784 25.184,6.384 L24.24,6.16 C23.616,6 23.12,5.68 23.12,5.232 C23.12,4.768 23.68,4.48 24.384,4.48 C25.376,4.48 25.984,4.8 26.144,5.552 L28.128,5.552 Z" id="Path"></path>
            <path d="M38.64,11.6 L38.64,9.872 L36.128,9.872 L36.128,2.992 L31.328,2.992 L31.328,4.72 L33.824,4.72 L33.824,9.872 L31.328,9.872 L31.328,11.6 L38.64,11.6 Z M33.824,1.13686838e-13 L33.824,2.128 L36.128,2.128 L36.128,1.13686838e-13 L33.824,1.13686838e-13 Z" id="Shape"></path>
            <path d="M46.896,4.08 C46.48,3.28 45.68,2.8 44.688,2.8 C42.72,2.8 41.2,4.368 41.2,7.136 C41.2,9.92 42.72,11.456 44.688,11.456 C45.68,11.456 46.48,10.976 46.896,10.192 L46.896,11.12 C46.896,12.176 46.368,12.944 45.216,12.944 C44.304,12.944 43.84,12.56 43.696,11.824 L41.584,11.824 C41.856,13.904 43.472,14.592 45.2,14.592 C47.68,14.592 49.184,13.552 49.184,10.72 L49.184,2.992 L46.896,2.992 L46.896,4.08 Z M46.976,7.136 C46.976,8.784 46.304,9.776 45.2,9.776 C44.112,9.776 43.504,8.688 43.504,7.136 C43.504,5.584 44.112,4.496 45.2,4.496 C46.304,4.496 46.976,5.504 46.976,7.136 Z" id="Shape"></path>
            <path d="M51.888,2.992 L51.888,11.6 L54.192,11.6 L54.192,7.04 C54.192,5.728 54.416,4.576 55.712,4.576 C56.88,4.576 56.976,5.664 56.976,6.576 L56.976,11.6 L59.28,11.6 L59.28,6.192 C59.28,4.128 58.464,2.8 56.48,2.8 C55.472,2.8 54.688,3.232 54.192,4 L54.192,2.992 L51.888,2.992 Z" id="Path"></path>
        </g>
        <g id="Launch" transform="translate(366.672000, 322.400000)" fill="#10162F" fill-rule="nonzero">
            <polygon id="Path" points="2.4 0 0 0 0 11.6 7.808 11.6 7.808 9.536 2.4 9.536"></polygon>
            <path d="M15.392,10.496 L15.408,11.6 L17.504,11.6 C17.424,11.344 17.328,11.12 17.328,8.752 C17.328,7.968 17.36,6.816 17.36,6.544 C17.36,3.632 15.84,2.768 13.712,2.768 C11.52,2.768 10.128,4.016 9.968,5.712 L12.032,5.712 C12.096,4.768 12.688,4.32 13.632,4.32 C14.576,4.32 15.152,4.768 15.152,6.096 L15.152,6.288 C12.256,6.656 9.744,7.104 9.744,9.296 C9.744,10.864 11.184,11.808 12.656,11.808 C13.904,11.808 14.784,11.408 15.392,10.496 Z M15.216,7.92 C15.216,9.312 14.72,10.24 13.28,10.24 C12.448,10.24 12.016,9.84 12.016,9.2 C12.016,8.176 12.992,7.92 15.216,7.696 L15.216,7.92 Z" id="Shape"></path>
            <path d="M25.584,11.6 L27.888,11.6 L27.888,2.992 L25.584,2.992 L25.584,7.568 C25.584,8.88 25.344,10.032 24.064,10.032 C22.896,10.032 22.8,8.944 22.8,8.032 L22.8,2.992 L20.496,2.992 L20.496,8.416 C20.496,10.48 21.312,11.808 23.392,11.808 C24.304,11.808 25.088,11.44 25.584,10.656 L25.584,11.6 Z" id="Path"></path>
            <path d="M30.768,2.992 L30.768,11.6 L33.072,11.6 L33.072,7.04 C33.072,5.728 33.296,4.576 34.592,4.576 C35.76,4.576 35.856,5.664 35.856,6.576 L35.856,11.6 L38.16,11.6 L38.16,6.192 C38.16,4.128 37.344,2.8 35.36,2.8 C34.352,2.8 33.568,3.232 33.072,4 L33.072,2.992 L30.768,2.992 Z" id="Path"></path>
            <path d="M44.88,2.8 C42.352,2.8 40.896,4.624 40.896,7.312 C40.896,9.92 42.32,11.808 44.832,11.808 C46.56,11.808 48.4,10.784 48.704,8.448 L46.496,8.448 C46.288,9.76 45.568,10.112 44.864,10.112 C43.84,10.112 43.2,9.248 43.2,7.312 C43.2,5.376 43.808,4.496 44.864,4.496 C45.888,4.496 46.32,5.184 46.448,6.096 L48.624,6.096 C48.368,3.808 46.56,2.8 44.88,2.8 Z" id="Path"></path>
            <path d="M51.44,0 L51.44,11.6 L53.744,11.6 L53.744,7.04 C53.744,5.728 53.984,4.576 55.28,4.576 C56.448,4.576 56.528,5.664 56.528,6.576 L56.528,11.6 L58.832,11.6 L58.832,6.192 C58.832,4.128 58.032,2.8 56.048,2.8 C55.04,2.8 54.24,3.232 53.744,4 L53.744,0 L51.44,0 Z" id="Path"></path>
        </g>
        <g id="Test" transform="translate(437.016000, 595.400000)" fill="#10162F" fill-rule="nonzero">
            <polygon id="Path" points="3.28 11.6 5.68 11.6 5.68 2.064 8.96 2.064 8.96 0 0 0 0 2.064 3.28 2.064"></polygon>
            <path d="M18.832,7.888 C18.912,4.72 17.392,2.8 14.8,2.8 C12.24,2.8 10.752,4.624 10.752,7.376 C10.752,10.016 12.144,11.808 14.832,11.808 C17.152,11.808 18.448,10.368 18.688,8.912 L16.496,8.912 C16.32,9.712 15.776,10.176 14.864,10.176 C13.904,10.176 13.04,9.472 12.96,7.888 L18.832,7.888 Z M14.768,4.448 C15.68,4.448 16.592,4.864 16.64,6.432 L12.96,6.432 C13.088,4.976 14.032,4.448 14.768,4.448 Z" id="Shape"></path>
            <path d="M28.672,5.552 C28.368,3.584 26.64,2.8 25.056,2.8 C23.184,2.8 21.68,3.728 21.68,5.392 C21.68,6.912 22.752,7.616 24.32,7.984 L25.344,8.224 C26.064,8.4 26.672,8.656 26.672,9.232 C26.672,9.808 26.144,10.112 25.28,10.112 C24.224,10.112 23.6,9.584 23.504,8.704 L21.472,8.704 C21.68,10.672 23.136,11.808 25.184,11.808 C27.104,11.808 28.768,10.784 28.768,8.96 C28.768,7.248 27.424,6.784 25.728,6.384 L24.784,6.16 C24.16,6 23.664,5.68 23.664,5.232 C23.664,4.768 24.224,4.48 24.928,4.48 C25.92,4.48 26.528,4.8 26.688,5.552 L28.672,5.552 Z" id="Path"></path>
            <path d="M33.44,2.992 L30.944,2.992 L30.944,4.736 L33.44,4.736 L33.44,9.264 C33.44,10.976 33.968,11.6 35.84,11.6 L39.072,11.6 L39.072,9.872 L36.688,9.872 C36.016,9.872 35.744,9.712 35.744,8.896 L35.744,4.736 L39.104,4.736 L39.104,2.992 L35.744,2.992 L35.744,0.688 L33.44,0.688 L33.44,2.992 Z" id="Path"></path>
        </g>
        <rect id="Rectangle" fill="#FF8C00" x="430" y="518" width="54" height="16"></rect>
        <rect id="Rectangle-Copy" fill="#FF8C00" x="430" y="536" width="54" height="16"></rect>
        <rect id="Rectangle-Copy-2" fill="#FF8C00" x="430" y="554" width="54" height="16"></rect>
        <path d="M484,518 L484,534 L430,534 L430,518 L484,518 Z M483,519 L431,519 L431,533 L483,533 L483,519 Z" id="Rectangle" fill="#10162F" fill-rule="nonzero"></path>
        <path d="M484,536 L484,552 L430,552 L430,536 L484,536 Z M483,537 L431,537 L431,551 L483,551 L483,537 Z" id="Rectangle-Copy" fill="#10162F" fill-rule="nonzero"></path>
        <path d="M484,554 L484,570 L430,570 L430,554 L484,554 Z M483,555 L431,555 L431,569 L483,569 L483,555 Z" id="Rectangle-Copy-2" fill="#10162F" fill-rule="nonzero"></path>
        <g id="1" transform="translate(453.964000, 521.300000)" fill="#10162F" fill-rule="nonzero">
            <path d="M0,7.404 L0,8.7 L6.12,8.7 L6.12,7.404 L4.116,7.404 L4.116,0 L2.796,0 C2.472,0.948 1.92,1.392 0,1.428 L0,2.724 L2.388,2.724 L2.388,7.404 L0,7.404 Z" id="Path"></path>
        </g>
        <g id="2" transform="translate(454.000000, 539.180000)" fill="#10162F" fill-rule="nonzero">
            <path d="M3.108,1.13686838e-13 C1.368,1.13686838e-13 0.036,1.104 0.096,3.264 L1.776,3.264 C1.74,1.98 2.316,1.332 3.084,1.332 C3.6,1.332 4.176,1.68 4.176,2.532 C4.176,3.564 3.192,4.644 1.812,5.832 L0,7.416 L0,8.82 L5.856,8.82 L5.856,7.404 L2.256,7.404 L3.204,6.576 C4.824,5.184 5.904,3.972 5.904,2.496 C5.904,0.912 4.692,1.13686838e-13 3.108,1.13686838e-13 Z" id="Path"></path>
        </g>
        <g id="3" transform="translate(453.796000, 557.144000)" fill="#10162F" fill-rule="nonzero">
            <path d="M1.716,6.12 L2.27373675e-13,6.12 C0.204,7.992 1.38,9.012 3.12,9.012 C4.692,9.012 6.228,8.124 6.228,6.324 C6.228,5.532 5.796,4.596 5.04,4.26 C5.568,3.912 6.096,3.18 6.096,2.28 C6.096,0.696 4.572,0 3.228,0 C1.524,0 0.312,0.936 0.12,2.664 L1.824,2.664 C1.92,1.764 2.4,1.272 3.156,1.272 C3.948,1.272 4.356,1.74 4.356,2.352 C4.356,3.204 3.744,3.636 2.772,3.636 L2.328,3.636 L2.328,5.184 L2.832,5.184 C3.792,5.184 4.452,5.664 4.452,6.468 C4.452,7.272 3.936,7.728 3.156,7.728 C2.364,7.728 1.812,7.14 1.716,6.12 Z" id="Path"></path>
        </g>
        <circle id="Oval" fill="#10162F" cx="457" cy="509" r="4"></circle>
        <circle id="Oval-Copy-5" fill="#10162F" cx="457" cy="579" r="4"></circle>
        <polygon id="Path" fill="#10162F" fill-rule="nonzero" points="457.5 514 457.5 518 456.5 518 456.5 514"></polygon>
        <polygon id="Path-Copy" fill="#10162F" fill-rule="nonzero" points="457.5 569 457.5 574 456.5 574 456.5 569"></polygon>
        <path d="M430,543.5 L426,543.5 L426,544.5 L430,544.5 L430,543.5 Z M425.046387,547.546387 L425.046387,551.546387 L426.046387,551.546387 L426.046387,547.546387 L425.046387,547.546387 Z M425.046387,555.546387 L425.046387,559.546387 L426.046387,559.546387 L426.046387,555.546387 L425.046387,555.546387 Z M427.092773,562.5 L430,562.5 L430,561.5 L427.092773,561.5 L427.092773,562.5 Z" id="Path-4" fill="#10162F" fill-rule="nonzero"></path>
        <path d="M488,525.5 L484,525.5 L484,526.5 L488,526.5 L488,525.5 Z M483.046387,529.546387 L483.046387,533.546387 L484.046387,533.546387 L484.046387,529.546387 L483.046387,529.546387 Z M483.046387,537.546387 L483.046387,541.546387 L484.046387,541.546387 L484.046387,537.546387 L483.046387,537.546387 Z M485.092773,544.5 L488,544.5 L488,543.5 L485.092773,543.5 L485.092773,544.5 Z" id="Path-4-Copy" fill="#10162F" fill-rule="nonzero" transform="translate(485.523193, 535.000000) rotate(-180.000000) translate(-485.523193, -535.000000) "></path>
        <g id="Group-5" transform="translate(568.000000, 77.000000)">
            <path d="M20.8356204,61.2630319 C20.5885568,60.9454926 20.3320045,60.6662752 20.0502588,60.3984412 L19.8780626,60.2388913 C18.1233558,58.6527422 15.3486172,57.2824374 8.16166294,50.3092508 C-0.462682213,41.9414269 -2.10818327,31.9696549 2.54453327,19.1892446 C6.97960454,7.00667779 19.6149672,0.58793599 29.8139249,0.0140805981 C30.1475919,-0.00469353269 30.6049752,-0.00469353269 31.1860751,0.0140805981 L31.1860751,0.0140805981 C41.3850328,0.58793599 54.0203955,7.00667779 58.4554667,19.1892446 C63.1081833,31.9696549 61.4626822,41.9414269 52.8383371,50.3092508 C45.6513828,57.2824374 42.8766442,58.6527422 41.1219374,60.2388913 L40.9497412,60.3984412 C40.6679955,60.6662752 40.4114432,60.9454926 40.1643796,61.2630319 L40.1643796,72.2993387 L40.1643796,72.2993387 L20.8356204,72.2993387 Z" id="Combined-Shape" stroke="#10162F" stroke-width="0.94"></path>
            <polyline id="Path-6" stroke="#10162F" stroke-width="0.94" points="16.6309637 28.4560909 20.0719344 41.5251104 23.8001525 28.4560909 27.3333346 41.5251104 30.9693413 28.4560909 34.5947348 41.5251104 38.1385301 28.4560909 41.856135 41.5251104 45.3077188 28.4560909"></polyline>
            <rect id="Rectangle" fill="#F966FF" x="18.9847777" y="71.7253475" width="22.6807819" height="4.72102019"></rect>
            <rect id="Rectangle-Copy-7" fill="#F966FF" x="18.9847777" y="75.5021636" width="22.6807819" height="4.72102019"></rect>
            <rect id="Rectangle" stroke="#10162F" stroke-width="0.94" x="19.4547777" y="72.1953475" width="21.7407819" height="3.78102019"></rect>
            <rect id="Rectangle-Copy-7" stroke="#10162F" stroke-width="0.94" x="19.4547777" y="75.9721636" width="21.7407819" height="3.78102019"></rect>
            <path d="M22.7649081,79.2789798 L37.8854293,79.2789798 C37.8854293,81.8863273 35.7717566,84 33.1644091,84 L27.4859282,84 C24.8785808,84 22.7649081,81.8863273 22.7649081,79.2789798 L22.7649081,79.2789798 L22.7649081,79.2789798 Z" id="Rectangle-Copy-8" fill="#10162F"></path>
        </g>
        <g id="Group-7" transform="translate(425.330600, 129.000000)" stroke="#FFFFFF">
            <path d="M72.9340941,12.5867422 C45.1047935,26.1354511 20.3502263,45.0172236 0,67.9024521" id="Oval"></path>
            <polyline id="Stroke-3" stroke-linecap="round" stroke-linejoin="round" transform="translate(66.669400, 15.651715) rotate(-26.000000) translate(-66.669400, -15.651715) " points="59.6694002 29.6517147 73.6694002 15.6517147 59.6694002 1.65171468"></polyline>
        </g>
        <g id="Group-7-Copy-2" transform="translate(784.361020, 431.951226) rotate(-210.000000) translate(-784.361020, -431.951226) translate(744.811943, 398.000000)" stroke="#FFFFFF">
            <path d="M72.9340941,12.5867422 C45.1047935,26.1354511 20.3502263,45.0172236 6.06935472e-14,67.9024521" id="Oval"></path>
            <polyline id="Stroke-3" stroke-linecap="round" stroke-linejoin="round" transform="translate(66.669400, 15.651715) rotate(-26.000000) translate(-66.669400, -15.651715) " points="59.6694002 29.6517147 73.6694002 15.6517147 59.6694002 1.65171468"></polyline>
        </g>
        <g id="Group-7-Copy-3" transform="translate(407.361020, 421.951226) rotate(-75.000000) translate(-407.361020, -421.951226) translate(367.811943, 388.000000)" stroke="#FFFFFF">
            <path d="M72.9340941,12.5867422 C45.1047935,26.1354511 20.3502263,45.0172236 -5.31958225e-16,67.9024521" id="Oval"></path>
            <polyline id="Stroke-3" stroke-linecap="round" stroke-linejoin="round" transform="translate(66.669400, 15.651715) rotate(-26.000000) translate(-66.669400, -15.651715) " points="59.6694002 29.6517147 73.6694002 15.6517147 59.6694002 1.65171468"></polyline>
        </g>
        <g id="Group-7-Copy-4" transform="translate(591.361020, 568.951226) rotate(-142.000000) translate(-591.361020, -568.951226) translate(551.811943, 535.000000)" stroke="#FFFFFF">
            <path d="M72.9340941,12.5867422 C45.1047935,26.1354511 20.3502263,45.0172236 2.11284417e-13,67.9024521" id="Oval"></path>
            <polyline id="Stroke-3" stroke-linecap="round" stroke-linejoin="round" transform="translate(66.669400, 15.651715) rotate(-26.000000) translate(-66.669400, -15.651715) " points="59.6694002 29.6517147 73.6694002 15.6517147 59.6694002 1.65171468"></polyline>
        </g>
        <g id="Group-7-Copy" transform="translate(741.879677, 169.951226) rotate(-285.000000) translate(-741.879677, -169.951226) translate(702.330600, 136.000000)" stroke="#FFFFFF">
            <path d="M72.9340941,12.5867422 C45.1047935,26.1354511 20.3502263,45.0172236 1.8107664e-14,67.9024521" id="Oval"></path>
            <polyline id="Stroke-3" stroke-linecap="round" stroke-linejoin="round" transform="translate(66.669400, 15.651715) rotate(-26.000000) translate(-66.669400, -15.651715) " points="59.6694002 29.6517147 73.6694002 15.6517147 59.6694002 1.65171468"></polyline>
        </g>
    </g>
</svg>